<svg width="100" height="100" viewBox="0 0 100 100" fill="none" xmlns="http://www.w3.org/2000/svg">
<g clip-path="url(#clip0_12_8)">
<path d="M0 0H100V100H0V0Z" fill="white"/>
<g opacity="0.7" clip-path="url(#clip1_12_8)">
<path d="M56.4114 87.1493C54.4629 89.603 50.5121 88.2586 50.4652 85.1255L49.7786 39.2992H80.592C86.1732 39.2992 89.2859 45.7455 85.8154 50.1165L56.4114 87.1493Z" fill="url(#paint0_linear_12_8)"/>
<path d="M56.4114 87.1493C54.4629 89.603 50.5121 88.2586 50.4652 85.1255L49.7786 39.2992H80.592C86.1732 39.2992 89.2859 45.7455 85.8154 50.1165L56.4114 87.1493Z" fill="url(#paint1_linear_12_8)" fill-opacity="0.2"/>
<path d="M43.8797 13.4112C45.8282 10.9572 49.7791 12.3018 49.826 15.435L50.1269 61.2611H19.6991C14.1178 61.2611 11.005 54.8148 14.4756 50.4438L43.8797 13.4112Z" fill="#3ECF8E"/>
</g>
<circle cx="8.5" cy="20.5" r="4.5" fill="#BBB6B6"/>
<path opacity="0.9" d="M23.5 59L6 89H94.5L68 24L43.5 77L23.5 59Z" fill="#848383" stroke="#D9D9D9"/>
</g>
<defs>
<linearGradient id="paint0_linear_12_8" x1="49.7786" y1="49.46" x2="77.1645" y2="60.9456" gradientUnits="userSpaceOnUse">
<stop stop-color="#249361"/>
<stop offset="1" stop-color="#3ECF8E"/>
</linearGradient>
<linearGradient id="paint1_linear_12_8" x1="37.6372" y1="32.8363" x2="50.1266" y2="56.3468" gradientUnits="userSpaceOnUse">
<stop/>
<stop offset="1" stop-opacity="0"/>
</linearGradient>
<clipPath id="clip0_12_8">
<rect width="100" height="100" fill="white"/>
</clipPath>
<clipPath id="clip1_12_8">
<rect width="74.2743" height="77" fill="white" transform="translate(13 12)"/>
</clipPath>
</defs>
</svg>
